<?xml version="1.0" encoding="utf-8"?>
<!-- Generator: Adobe Illustrator 23.0.1, SVG Export Plug-In . SVG Version: 6.00 Build 0)  -->
<svg version="1.1" id="Layer_1" xmlns="http://www.w3.org/2000/svg" xmlns:xlink="http://www.w3.org/1999/xlink" x="0px" y="0px"
	 viewBox="0 0 24.8 25.2" style="enable-background:new 0 0 24.8 25.2;" xml:space="preserve">
<style type="text/css">
	.st0{fill-rule:evenodd;clip-rule:evenodd;fill:#DB0007;}
</style>
<title>9B9A4EB0-3BC6-43E2-9F26-9CCFAA99BEC1</title>
<desc>Created with sketchtool.</desc>
<g id="UI-Experiments">
	<g id="HOME-UI-test-2" transform="translate(-1241.000000, -26.000000)">
		<g id="MENU">
			<g id="Group-7">
				<g transform="translate(1241.000000, 26.000000)">
					<g id="flogo-HexRBG-Wht-58">
						<path id="Path" class="st0" d="M23.4,0h-22C0.6,0,0,0.6,0,1.4v22.4c0,0.8,0.6,1.4,1.4,1.4h11.9v-9.7H10v-3.8h3.2V8.8
							c0-3.3,1.9-5,4.8-5c1,0,1.9,0.1,2.9,0.2v3.4h-2c-1.6,0-1.8,0.7-1.8,1.8v2.4h3.7l-0.5,3.8h-3.2v9.7h6.3c0.8,0,1.4-0.6,1.4-1.4
							V1.4C24.8,0.6,24.1,0,23.4,0z"/>
					</g>
				</g>
			</g>
		</g>
	</g>
</g>
</svg>
