<?xml version="1.0" encoding="utf-8"?>
<!-- Generator: Adobe Illustrator 23.0.1, SVG Export Plug-In . SVG Version: 6.00 Build 0)  -->
<svg version="1.1" id="Layer_1" xmlns="http://www.w3.org/2000/svg" xmlns:xlink="http://www.w3.org/1999/xlink" x="0px" y="0px"
	 viewBox="0 0 29.1 25.7" style="enable-background:new 0 0 29.1 25.7;" xml:space="preserve">
<style type="text/css">
	.st0{filter:url(#Adobe_OpacityMaskFilter);}
	.st1{fill-rule:evenodd;clip-rule:evenodd;fill:#FFFFFF;}
	.st2{mask:url(#mask-2_1_);fill-rule:evenodd;clip-rule:evenodd;fill:#DB0007;}
</style>
<title>A2B618DF-3C5B-47FA-B879-9A85B3607730</title>
<desc>Created with sketchtool.</desc>
<g id="UI-Experiments">
	<g id="HOME-UI-test-2" transform="translate(-1309.000000, -26.000000)">
		<g id="MENU">
			<g id="Group-7">
				<g transform="translate(1241.000000, 26.000000)">
					<g id="yt_logo_rgb_light" transform="translate(64.072581, 0.000000)">
						<g id="Group-3">
							<g id="Clip-2">
							</g>
							<defs>
								<filter id="Adobe_OpacityMaskFilter" filterUnits="userSpaceOnUse" x="4" y="0" width="29" height="25.7">
									<feColorMatrix  type="matrix" values="1 0 0 0 0  0 1 0 0 0  0 0 1 0 0  0 0 0 1 0"/>
								</filter>
							</defs>
							<mask maskUnits="userSpaceOnUse" x="4" y="0" width="29" height="25.7" id="mask-2_1_">
								<g class="st0">
									<polygon id="path-1_1_" class="st1" points="-0.8,0 35,0 35,25.7 -0.8,25.7 									"/>
								</g>
							</mask>
							<path id="Fill-1" class="st2" d="M32.4,4.1c-0.3-1.6-1.3-2.8-2.6-3.2C27.5,0,18.5,0,18.5,0S9.4,0,7.1,0.8
								C5.9,1.2,4.9,2.5,4.6,4.1C4,6.9,4,12.9,4,12.9s0,6,0.6,8.8c0.3,1.6,1.3,2.8,2.6,3.2c2.3,0.8,11.3,0.8,11.3,0.8
								s9.1,0,11.3-0.8c1.2-0.4,2.2-1.7,2.6-3.2c0.6-2.9,0.6-8.8,0.6-8.8S33,6.9,32.4,4.1"/>
						</g>
						<polyline id="Fill-4" class="st1" points="15.4,18.4 24.1,13.2 15.4,7.9 15.4,18.4 						"/>
					</g>
				</g>
			</g>
		</g>
	</g>
</g>
</svg>
